<mxfile host="app.diagrams.net" agent="Mozilla/5.0 (Windows NT 10.0; Win64; x64) AppleWebKit/537.36 (KHTML, like Gecko) Chrome/138.0.0.0 Safari/537.36" version="28.0.6" pages="3">
  <diagram id="xN5x6U7VqkhNpMYfdrum" name="Pagina-3">
    <mxGraphModel dx="1426" dy="841" grid="1" gridSize="10" guides="1" tooltips="1" connect="1" arrows="1" fold="1" page="1" pageScale="1" pageWidth="827" pageHeight="1169" math="0" shadow="0">
      <root>
        <mxCell id="0" />
        <mxCell id="1" parent="0" />
        <mxCell id="XEdPZ9z6FTMDKz0GWdOZ-1" value="Software non monoliico&lt;div&gt;Funzioni moduli e librerie documentate e commentate&lt;/div&gt;&lt;div&gt;Codice sincronizzato con github&lt;/div&gt;&lt;div&gt;Deve venire sfruttato il multithreading per parallelizzare il lavoro tra le varie componenti&lt;/div&gt;&lt;div&gt;Il prodotto deve avere un logger (UNO SOLO) per l&#39;intero sistema honeypot&lt;/div&gt;&lt;div&gt;Il prodotto deve gestire gli errori tramite questo logger e non deve crashare&lt;/div&gt;&lt;div&gt;La release deve essere testata quotidianamente&lt;/div&gt;" style="text;html=1;align=center;verticalAlign=middle;resizable=0;points=[];autosize=1;strokeColor=none;fillColor=none;" vertex="1" parent="1">
          <mxGeometry x="180" y="110" width="490" height="110" as="geometry" />
        </mxCell>
        <mxCell id="XEdPZ9z6FTMDKz0GWdOZ-2" value="Log collector -&amp;gt; Broker MQTT -&amp;gt; Telegraph -&amp;gt; InfluxDB -&amp;gt; Graphana" style="text;html=1;align=center;verticalAlign=middle;resizable=0;points=[];autosize=1;strokeColor=none;fillColor=none;" vertex="1" parent="1">
          <mxGeometry x="220" y="272" width="390" height="30" as="geometry" />
        </mxCell>
        <mxCell id="XEdPZ9z6FTMDKz0GWdOZ-3" value="Il log collector deve raccogliere e fare il parsing dei log dei servizi" style="text;html=1;align=center;verticalAlign=middle;resizable=0;points=[];autosize=1;strokeColor=none;fillColor=none;" vertex="1" parent="1">
          <mxGeometry x="225" y="302" width="370" height="30" as="geometry" />
        </mxCell>
      </root>
    </mxGraphModel>
  </diagram>
  <diagram name="Diagramma di flusso" id="OJTAx1E-zGRAdYcA4EYE">
    <mxGraphModel dx="3204" dy="1402" grid="1" gridSize="10" guides="1" tooltips="1" connect="1" arrows="1" fold="1" page="1" pageScale="1" pageWidth="827" pageHeight="1169" math="0" shadow="0">
      <root>
        <mxCell id="0" />
        <mxCell id="1" parent="0" />
        <mxCell id="SJIwrBueYrAvOL3O_ICt-12" value="" style="rounded=0;whiteSpace=wrap;html=1;" parent="1" vertex="1">
          <mxGeometry x="240" y="358" width="870" height="572" as="geometry" />
        </mxCell>
        <mxCell id="SJIwrBueYrAvOL3O_ICt-7" value="InfluxDB" style="rounded=0;whiteSpace=wrap;html=1;" parent="1" vertex="1">
          <mxGeometry x="-400" y="449" width="120" height="60" as="geometry" />
        </mxCell>
        <mxCell id="SJIwrBueYrAvOL3O_ICt-8" value="Grafana" style="rounded=0;whiteSpace=wrap;html=1;" parent="1" vertex="1">
          <mxGeometry x="-600" y="450" width="120" height="60" as="geometry" />
        </mxCell>
        <mxCell id="SJIwrBueYrAvOL3O_ICt-9" value="MQTT&lt;div&gt;Broker&lt;/div&gt;" style="rounded=0;whiteSpace=wrap;html=1;" parent="1" vertex="1">
          <mxGeometry x="80" y="420" width="80" height="120" as="geometry" />
        </mxCell>
        <mxCell id="SJIwrBueYrAvOL3O_ICt-10" value="python_log_collector" style="rounded=0;whiteSpace=wrap;html=1;" parent="1" vertex="1">
          <mxGeometry x="520" y="614" width="120" height="60" as="geometry" />
        </mxCell>
        <mxCell id="SJIwrBueYrAvOL3O_ICt-11" value="bash_history" style="rounded=0;whiteSpace=wrap;html=1;" parent="1" vertex="1">
          <mxGeometry x="520" y="724" width="120" height="60" as="geometry" />
        </mxCell>
        <mxCell id="SJIwrBueYrAvOL3O_ICt-13" value="Honeypot&lt;div&gt;Linux&lt;/div&gt;" style="rounded=0;whiteSpace=wrap;html=1;" parent="1" vertex="1">
          <mxGeometry x="240" y="298" width="870" height="60" as="geometry" />
        </mxCell>
        <mxCell id="SJIwrBueYrAvOL3O_ICt-14" value="Malicious User" style="shape=umlActor;verticalLabelPosition=bottom;verticalAlign=top;html=1;outlineConnect=0;" parent="1" vertex="1">
          <mxGeometry x="1470" y="614" width="30" height="60" as="geometry" />
        </mxCell>
        <mxCell id="SJIwrBueYrAvOL3O_ICt-15" value="" style="endArrow=classic;html=1;rounded=0;" parent="1" source="SJIwrBueYrAvOL3O_ICt-6" target="SJIwrBueYrAvOL3O_ICt-9" edge="1">
          <mxGeometry width="50" height="50" relative="1" as="geometry">
            <mxPoint x="10" y="610" as="sourcePoint" />
            <mxPoint x="20" y="550" as="targetPoint" />
          </mxGeometry>
        </mxCell>
        <mxCell id="SJIwrBueYrAvOL3O_ICt-17" value="" style="endArrow=classic;html=1;rounded=0;exitX=0.5;exitY=0;exitDx=0;exitDy=0;" parent="1" source="SJIwrBueYrAvOL3O_ICt-11" target="SJIwrBueYrAvOL3O_ICt-10" edge="1">
          <mxGeometry width="50" height="50" relative="1" as="geometry">
            <mxPoint x="420" y="723" as="sourcePoint" />
            <mxPoint x="470" y="673" as="targetPoint" />
          </mxGeometry>
        </mxCell>
        <mxCell id="SJIwrBueYrAvOL3O_ICt-19" value="SSH Emulation" style="rounded=0;whiteSpace=wrap;html=1;" parent="1" vertex="1">
          <mxGeometry x="1050" y="398" width="120" height="60" as="geometry" />
        </mxCell>
        <mxCell id="SJIwrBueYrAvOL3O_ICt-20" value="Multi-Service Emulation" style="rounded=0;whiteSpace=wrap;html=1;" parent="1" vertex="1">
          <mxGeometry x="1050" y="540" width="120" height="60" as="geometry" />
        </mxCell>
        <mxCell id="SJIwrBueYrAvOL3O_ICt-24" value="" style="endArrow=none;html=1;rounded=0;" parent="1" edge="1">
          <mxGeometry width="50" height="50" relative="1" as="geometry">
            <mxPoint x="1260" y="850" as="sourcePoint" />
            <mxPoint x="1260" y="430" as="targetPoint" />
          </mxGeometry>
        </mxCell>
        <mxCell id="SJIwrBueYrAvOL3O_ICt-27" value="" style="endArrow=classic;html=1;rounded=0;entryX=1;entryY=0.5;entryDx=0;entryDy=0;" parent="1" edge="1">
          <mxGeometry width="50" height="50" relative="1" as="geometry">
            <mxPoint x="1260" y="429.6600000000001" as="sourcePoint" />
            <mxPoint x="1170" y="429.65999999999997" as="targetPoint" />
          </mxGeometry>
        </mxCell>
        <mxCell id="SJIwrBueYrAvOL3O_ICt-28" value="" style="endArrow=classic;html=1;rounded=0;entryX=1;entryY=0.5;entryDx=0;entryDy=0;" parent="1" edge="1">
          <mxGeometry width="50" height="50" relative="1" as="geometry">
            <mxPoint x="1260" y="569.3100000000002" as="sourcePoint" />
            <mxPoint x="1170" y="569.31" as="targetPoint" />
          </mxGeometry>
        </mxCell>
        <mxCell id="SJIwrBueYrAvOL3O_ICt-36" value="" style="endArrow=none;html=1;rounded=0;" parent="1" edge="1">
          <mxGeometry width="50" height="50" relative="1" as="geometry">
            <mxPoint x="740" y="850" as="sourcePoint" />
            <mxPoint x="740" y="430" as="targetPoint" />
          </mxGeometry>
        </mxCell>
        <mxCell id="SJIwrBueYrAvOL3O_ICt-41" value="" style="endArrow=none;html=1;rounded=0;exitX=1;exitY=0.5;exitDx=0;exitDy=0;" parent="1" source="SJIwrBueYrAvOL3O_ICt-10" edge="1">
          <mxGeometry width="50" height="50" relative="1" as="geometry">
            <mxPoint x="710" y="538.5" as="sourcePoint" />
            <mxPoint x="740" y="644" as="targetPoint" />
          </mxGeometry>
        </mxCell>
        <mxCell id="SJIwrBueYrAvOL3O_ICt-44" value="2222" style="text;html=1;align=center;verticalAlign=middle;resizable=0;points=[];autosize=1;strokeColor=none;fillColor=none;" parent="1" vertex="1">
          <mxGeometry x="1190" y="398" width="50" height="30" as="geometry" />
        </mxCell>
        <mxCell id="XffRLlX8YXGy_mDetvde-1" value="cyber attack" style="text;html=1;align=center;verticalAlign=middle;resizable=0;points=[];autosize=1;strokeColor=none;fillColor=none;" parent="1" vertex="1">
          <mxGeometry x="1315" y="614" width="90" height="30" as="geometry" />
        </mxCell>
        <mxCell id="1IT_WYaAA2r4hprVY0aD-1" value="MQTT&lt;div&gt;Client&lt;/div&gt;" style="rounded=0;whiteSpace=wrap;html=1;" parent="1" vertex="1">
          <mxGeometry x="330" y="450" width="120" height="60" as="geometry" />
        </mxCell>
        <mxCell id="1IT_WYaAA2r4hprVY0aD-2" value="Connect" style="text;html=1;align=center;verticalAlign=middle;resizable=0;points=[];autosize=1;strokeColor=none;fillColor=none;" parent="1" vertex="1">
          <mxGeometry x="260" y="440" width="70" height="30" as="geometry" />
        </mxCell>
        <mxCell id="1IT_WYaAA2r4hprVY0aD-3" value="" style="endArrow=classic;html=1;rounded=0;" parent="1" edge="1">
          <mxGeometry width="50" height="50" relative="1" as="geometry">
            <mxPoint x="160" y="500" as="sourcePoint" />
            <mxPoint x="330" y="500" as="targetPoint" />
          </mxGeometry>
        </mxCell>
        <mxCell id="1IT_WYaAA2r4hprVY0aD-4" value="Connack" style="text;html=1;align=center;verticalAlign=middle;resizable=0;points=[];autosize=1;strokeColor=none;fillColor=none;" parent="1" vertex="1">
          <mxGeometry x="160" y="500" width="70" height="30" as="geometry" />
        </mxCell>
        <mxCell id="1IT_WYaAA2r4hprVY0aD-5" value="" style="endArrow=classic;html=1;rounded=0;" parent="1" source="SJIwrBueYrAvOL3O_ICt-6" target="SJIwrBueYrAvOL3O_ICt-7" edge="1">
          <mxGeometry width="50" height="50" relative="1" as="geometry">
            <mxPoint x="-280" y="479" as="sourcePoint" />
            <mxPoint x="-250" y="580" as="targetPoint" />
          </mxGeometry>
        </mxCell>
        <mxCell id="SJIwrBueYrAvOL3O_ICt-6" value="Telegraf" style="rounded=0;whiteSpace=wrap;html=1;" parent="1" vertex="1">
          <mxGeometry x="-170" y="450" width="120" height="60" as="geometry" />
        </mxCell>
        <mxCell id="1IT_WYaAA2r4hprVY0aD-6" value="" style="endArrow=classic;html=1;rounded=0;" parent="1" source="SJIwrBueYrAvOL3O_ICt-7" target="SJIwrBueYrAvOL3O_ICt-8" edge="1">
          <mxGeometry width="50" height="50" relative="1" as="geometry">
            <mxPoint x="-120" y="680" as="sourcePoint" />
            <mxPoint x="-480" y="620" as="targetPoint" />
          </mxGeometry>
        </mxCell>
        <mxCell id="1IT_WYaAA2r4hprVY0aD-7" value="mqtt_consumer" style="text;html=1;align=center;verticalAlign=middle;resizable=0;points=[];autosize=1;strokeColor=none;fillColor=none;" parent="1" vertex="1">
          <mxGeometry x="-60" y="455" width="110" height="30" as="geometry" />
        </mxCell>
        <mxCell id="1IT_WYaAA2r4hprVY0aD-11" value="logs" style="text;html=1;align=center;verticalAlign=middle;resizable=0;points=[];autosize=1;strokeColor=none;fillColor=none;" parent="1" vertex="1">
          <mxGeometry x="-440" y="455" width="50" height="30" as="geometry" />
        </mxCell>
        <mxCell id="1IT_WYaAA2r4hprVY0aD-12" value="log data" style="text;html=1;align=center;verticalAlign=middle;resizable=0;points=[];autosize=1;strokeColor=none;fillColor=none;" parent="1" vertex="1">
          <mxGeometry x="-230" y="455" width="70" height="30" as="geometry" />
        </mxCell>
        <mxCell id="PbCCnxW1PIjs6q8HIkkF-1" value="cowrie&lt;div&gt;parser&lt;/div&gt;" style="rounded=0;whiteSpace=wrap;html=1;" parent="1" vertex="1">
          <mxGeometry x="827" y="398" width="120" height="60" as="geometry" />
        </mxCell>
        <mxCell id="PbCCnxW1PIjs6q8HIkkF-2" value="&lt;div&gt;dionaea&lt;/div&gt;&lt;div&gt;parser&lt;/div&gt;" style="rounded=0;whiteSpace=wrap;html=1;" parent="1" vertex="1">
          <mxGeometry x="827" y="540" width="120" height="60" as="geometry" />
        </mxCell>
        <mxCell id="PbCCnxW1PIjs6q8HIkkF-3" value="" style="endArrow=classic;html=1;rounded=0;" parent="1" source="PbCCnxW1PIjs6q8HIkkF-1" target="SJIwrBueYrAvOL3O_ICt-19" edge="1">
          <mxGeometry width="50" height="50" relative="1" as="geometry">
            <mxPoint x="960" y="489.5000000000001" as="sourcePoint" />
            <mxPoint x="1050" y="489.5" as="targetPoint" />
          </mxGeometry>
        </mxCell>
        <mxCell id="PbCCnxW1PIjs6q8HIkkF-4" value="" style="endArrow=classic;html=1;rounded=0;" parent="1" source="PbCCnxW1PIjs6q8HIkkF-2" target="SJIwrBueYrAvOL3O_ICt-20" edge="1">
          <mxGeometry width="50" height="50" relative="1" as="geometry">
            <mxPoint x="955" y="570.0000000000001" as="sourcePoint" />
            <mxPoint x="1045" y="570" as="targetPoint" />
          </mxGeometry>
        </mxCell>
        <mxCell id="9GUcFOMh8Xtb3fJ_STBj-1" value="apache&lt;div&gt;parser&lt;/div&gt;" style="rounded=0;whiteSpace=wrap;html=1;" vertex="1" parent="1">
          <mxGeometry x="827" y="680" width="120" height="60" as="geometry" />
        </mxCell>
        <mxCell id="9GUcFOMh8Xtb3fJ_STBj-2" value="openldap&lt;div&gt;parser&lt;/div&gt;" style="rounded=0;whiteSpace=wrap;html=1;" vertex="1" parent="1">
          <mxGeometry x="827" y="820" width="120" height="60" as="geometry" />
        </mxCell>
        <mxCell id="9GUcFOMh8Xtb3fJ_STBj-3" value="Web Server Emulation" style="rounded=0;whiteSpace=wrap;html=1;" vertex="1" parent="1">
          <mxGeometry x="1050" y="680" width="120" height="60" as="geometry" />
        </mxCell>
        <mxCell id="9GUcFOMh8Xtb3fJ_STBj-4" value="" style="endArrow=classic;html=1;rounded=0;entryX=1;entryY=0.5;entryDx=0;entryDy=0;" edge="1" parent="1">
          <mxGeometry width="50" height="50" relative="1" as="geometry">
            <mxPoint x="1260" y="711.6600000000001" as="sourcePoint" />
            <mxPoint x="1170" y="711.66" as="targetPoint" />
          </mxGeometry>
        </mxCell>
        <mxCell id="9GUcFOMh8Xtb3fJ_STBj-6" value="" style="endArrow=classic;html=1;rounded=0;" edge="1" parent="1" target="9GUcFOMh8Xtb3fJ_STBj-3">
          <mxGeometry width="50" height="50" relative="1" as="geometry">
            <mxPoint x="947" y="710" as="sourcePoint" />
            <mxPoint x="1050" y="771.5" as="targetPoint" />
          </mxGeometry>
        </mxCell>
        <mxCell id="9GUcFOMh8Xtb3fJ_STBj-7" value="Directory Service Emulation" style="rounded=0;whiteSpace=wrap;html=1;" vertex="1" parent="1">
          <mxGeometry x="1050" y="820" width="120" height="60" as="geometry" />
        </mxCell>
        <mxCell id="9GUcFOMh8Xtb3fJ_STBj-8" value="" style="endArrow=classic;html=1;rounded=0;entryX=1;entryY=0.5;entryDx=0;entryDy=0;" edge="1" parent="1">
          <mxGeometry width="50" height="50" relative="1" as="geometry">
            <mxPoint x="1260" y="851.6600000000001" as="sourcePoint" />
            <mxPoint x="1170" y="851.66" as="targetPoint" />
          </mxGeometry>
        </mxCell>
        <mxCell id="9GUcFOMh8Xtb3fJ_STBj-10" value="" style="endArrow=classic;html=1;rounded=0;" edge="1" parent="1" target="9GUcFOMh8Xtb3fJ_STBj-7">
          <mxGeometry width="50" height="50" relative="1" as="geometry">
            <mxPoint x="947" y="850" as="sourcePoint" />
            <mxPoint x="1050" y="911.5" as="targetPoint" />
          </mxGeometry>
        </mxCell>
        <mxCell id="9GUcFOMh8Xtb3fJ_STBj-11" value="" style="endArrow=none;html=1;rounded=0;" edge="1" parent="1" target="SJIwrBueYrAvOL3O_ICt-14">
          <mxGeometry width="50" height="50" relative="1" as="geometry">
            <mxPoint x="1260" y="644" as="sourcePoint" />
            <mxPoint x="870" y="650" as="targetPoint" />
          </mxGeometry>
        </mxCell>
        <mxCell id="9GUcFOMh8Xtb3fJ_STBj-13" value="" style="endArrow=classic;html=1;rounded=0;entryX=1;entryY=0.5;entryDx=0;entryDy=0;" edge="1" parent="1">
          <mxGeometry width="50" height="50" relative="1" as="geometry">
            <mxPoint x="740" y="850" as="sourcePoint" />
            <mxPoint x="827" y="849.5" as="targetPoint" />
          </mxGeometry>
        </mxCell>
        <mxCell id="9GUcFOMh8Xtb3fJ_STBj-14" value="" style="endArrow=classic;html=1;rounded=0;entryX=1;entryY=0.5;entryDx=0;entryDy=0;" edge="1" parent="1">
          <mxGeometry width="50" height="50" relative="1" as="geometry">
            <mxPoint x="740" y="710" as="sourcePoint" />
            <mxPoint x="827" y="709.5" as="targetPoint" />
          </mxGeometry>
        </mxCell>
        <mxCell id="9GUcFOMh8Xtb3fJ_STBj-15" value="" style="endArrow=classic;html=1;rounded=0;entryX=1;entryY=0.5;entryDx=0;entryDy=0;" edge="1" parent="1">
          <mxGeometry width="50" height="50" relative="1" as="geometry">
            <mxPoint x="740" y="570.5" as="sourcePoint" />
            <mxPoint x="827" y="570" as="targetPoint" />
          </mxGeometry>
        </mxCell>
        <mxCell id="9GUcFOMh8Xtb3fJ_STBj-16" value="" style="endArrow=classic;html=1;rounded=0;entryX=1;entryY=0.5;entryDx=0;entryDy=0;" edge="1" parent="1">
          <mxGeometry width="50" height="50" relative="1" as="geometry">
            <mxPoint x="740" y="428.5" as="sourcePoint" />
            <mxPoint x="827" y="428" as="targetPoint" />
          </mxGeometry>
        </mxCell>
        <mxCell id="9GUcFOMh8Xtb3fJ_STBj-17" value="80 / 443" style="text;html=1;align=center;verticalAlign=middle;resizable=0;points=[];autosize=1;strokeColor=none;fillColor=none;" vertex="1" parent="1">
          <mxGeometry x="1180" y="680" width="70" height="30" as="geometry" />
        </mxCell>
        <mxCell id="9GUcFOMh8Xtb3fJ_STBj-18" value="389 / 636" style="text;html=1;align=center;verticalAlign=middle;resizable=0;points=[];autosize=1;strokeColor=none;fillColor=none;" vertex="1" parent="1">
          <mxGeometry x="1180" y="820" width="70" height="30" as="geometry" />
        </mxCell>
        <mxCell id="9GUcFOMh8Xtb3fJ_STBj-19" value="21 / 69 / 135&lt;div&gt;445 / 1723&lt;/div&gt;&lt;div&gt;1900 / 3306&lt;/div&gt;" style="text;html=1;align=center;verticalAlign=middle;resizable=0;points=[];autosize=1;strokeColor=none;fillColor=none;" vertex="1" parent="1">
          <mxGeometry x="1170" y="510" width="90" height="60" as="geometry" />
        </mxCell>
        <mxCell id="9GUcFOMh8Xtb3fJ_STBj-20" value="" style="endArrow=classic;html=1;rounded=0;entryX=1;entryY=0.367;entryDx=0;entryDy=0;entryPerimeter=0;exitX=0;exitY=0.25;exitDx=0;exitDy=0;" edge="1" parent="1" source="1IT_WYaAA2r4hprVY0aD-1" target="SJIwrBueYrAvOL3O_ICt-9">
          <mxGeometry width="50" height="50" relative="1" as="geometry">
            <mxPoint x="660" y="590" as="sourcePoint" />
            <mxPoint x="710" y="540" as="targetPoint" />
          </mxGeometry>
        </mxCell>
        <mxCell id="9GUcFOMh8Xtb3fJ_STBj-21" value="MQTT publisher" style="rounded=0;whiteSpace=wrap;html=1;" vertex="1" parent="1">
          <mxGeometry x="330" y="614" width="120" height="60" as="geometry" />
        </mxCell>
        <mxCell id="9GUcFOMh8Xtb3fJ_STBj-22" value="" style="endArrow=classic;html=1;rounded=0;" edge="1" parent="1" source="SJIwrBueYrAvOL3O_ICt-10" target="9GUcFOMh8Xtb3fJ_STBj-21">
          <mxGeometry width="50" height="50" relative="1" as="geometry">
            <mxPoint x="570" y="610" as="sourcePoint" />
            <mxPoint x="620" y="560" as="targetPoint" />
          </mxGeometry>
        </mxCell>
        <mxCell id="9GUcFOMh8Xtb3fJ_STBj-23" value="" style="endArrow=none;html=1;rounded=0;" edge="1" parent="1" source="9GUcFOMh8Xtb3fJ_STBj-21" target="1IT_WYaAA2r4hprVY0aD-1">
          <mxGeometry width="50" height="50" relative="1" as="geometry">
            <mxPoint x="570" y="610" as="sourcePoint" />
            <mxPoint x="620" y="560" as="targetPoint" />
          </mxGeometry>
        </mxCell>
        <mxCell id="9GUcFOMh8Xtb3fJ_STBj-24" value="topics (&lt;span style=&quot;background-color: transparent; color: light-dark(rgb(0, 0, 0), rgb(255, 255, 255));&quot;&gt;honeypot/logs/#)&lt;/span&gt;" style="text;html=1;align=left;verticalAlign=middle;whiteSpace=wrap;rounded=0;" vertex="1" parent="1">
          <mxGeometry x="400" y="550" width="140" height="30" as="geometry" />
        </mxCell>
      </root>
    </mxGraphModel>
  </diagram>
  <diagram id="G7-UpX7iSyqx6aXkQIhe" name="Diagramma delle classi Logger">
    <mxGraphModel dx="2852" dy="1486" grid="1" gridSize="10" guides="1" tooltips="1" connect="1" arrows="1" fold="1" page="1" pageScale="1" pageWidth="827" pageHeight="1169" math="0" shadow="0">
      <root>
        <mxCell id="0" />
        <mxCell id="1" parent="0" />
        <mxCell id="EWb6-vIa2LJka5ViZmFn-60" style="edgeStyle=orthogonalEdgeStyle;rounded=0;orthogonalLoop=1;jettySize=auto;html=1;endArrow=none;startFill=0;dashed=1;" parent="1" edge="1">
          <mxGeometry relative="1" as="geometry">
            <mxPoint x="640" y="1320" as="targetPoint" />
            <mxPoint x="1400" y="1320" as="sourcePoint" />
            <Array as="points">
              <mxPoint x="975" y="1320.41" />
              <mxPoint x="925" y="1320.41" />
            </Array>
          </mxGeometry>
        </mxCell>
        <mxCell id="EWb6-vIa2LJka5ViZmFn-63" style="edgeStyle=orthogonalEdgeStyle;rounded=0;orthogonalLoop=1;jettySize=auto;html=1;endArrow=none;startFill=0;dashed=1;" parent="1" edge="1">
          <mxGeometry relative="1" as="geometry">
            <mxPoint x="1144.94" y="1321" as="targetPoint" />
            <mxPoint x="1144.9685714285715" y="1411" as="sourcePoint" />
            <Array as="points">
              <mxPoint x="1144.94" y="1320" />
            </Array>
          </mxGeometry>
        </mxCell>
        <mxCell id="EWb6-vIa2LJka5ViZmFn-64" value="" style="endArrow=block;endSize=16;endFill=0;html=1;rounded=0;dashed=1;" parent="1" source="QCmeBYBMexqe6wqpS28w-74" edge="1" target="QCmeBYBMexqe6wqpS28w-66">
          <mxGeometry width="160" relative="1" as="geometry">
            <mxPoint x="1705" y="1160" as="sourcePoint" />
            <mxPoint x="1704.9999999999995" y="1110" as="targetPoint" />
          </mxGeometry>
        </mxCell>
        <mxCell id="EWb6-vIa2LJka5ViZmFn-75" value="" style="endArrow=open;html=1;endSize=12;startArrow=diamondThin;startSize=14;startFill=0;edgeStyle=orthogonalEdgeStyle;align=left;verticalAlign=bottom;rounded=0;" parent="1" target="QCmeBYBMexqe6wqpS28w-66" edge="1" source="QCmeBYBMexqe6wqpS28w-38">
          <mxGeometry x="-1" y="3" relative="1" as="geometry">
            <mxPoint x="1300" y="860" as="sourcePoint" />
            <mxPoint x="1560.0000000000005" y="1130" as="targetPoint" />
            <Array as="points">
              <mxPoint x="1325" y="640" />
            </Array>
          </mxGeometry>
        </mxCell>
        <mxCell id="EWb6-vIa2LJka5ViZmFn-76" value="" style="endArrow=open;html=1;endSize=12;startArrow=diamondThin;startSize=14;startFill=0;edgeStyle=orthogonalEdgeStyle;align=left;verticalAlign=bottom;rounded=0;" parent="1" target="QCmeBYBMexqe6wqpS28w-46" edge="1" source="QCmeBYBMexqe6wqpS28w-38">
          <mxGeometry x="-1" y="3" relative="1" as="geometry">
            <mxPoint x="150" y="1230" as="sourcePoint" />
            <mxPoint x="1030.0000000000005" y="1130" as="targetPoint" />
            <Array as="points">
              <mxPoint x="410" y="640" />
              <mxPoint x="410" y="1230" />
            </Array>
          </mxGeometry>
        </mxCell>
        <mxCell id="QCmeBYBMexqe6wqpS28w-6" value="" style="endArrow=open;endSize=12;dashed=1;html=1;rounded=0;edgeStyle=orthogonalEdgeStyle;" parent="1" target="QCmeBYBMexqe6wqpS28w-42" edge="1" source="6KuRIGiBE2LzYe0tk9z_-12">
          <mxGeometry x="0.0462" y="-137" width="160" relative="1" as="geometry">
            <mxPoint x="660" y="920" as="sourcePoint" />
            <mxPoint x="757.75" y="1130" as="targetPoint" />
            <mxPoint as="offset" />
          </mxGeometry>
        </mxCell>
        <mxCell id="dHYuHEalV0UuCKeOw86G-1" value="use" style="edgeLabel;html=1;align=center;verticalAlign=middle;resizable=0;points=[];" vertex="1" connectable="0" parent="QCmeBYBMexqe6wqpS28w-6">
          <mxGeometry x="-0.47" y="-2" relative="1" as="geometry">
            <mxPoint as="offset" />
          </mxGeometry>
        </mxCell>
        <mxCell id="QCmeBYBMexqe6wqpS28w-10" value="return" style="html=1;verticalAlign=bottom;endArrow=open;dashed=1;endSize=8;rounded=0;edgeStyle=orthogonalEdgeStyle;" parent="1" source="QCmeBYBMexqe6wqpS28w-42" target="QCmeBYBMexqe6wqpS28w-46" edge="1">
          <mxGeometry relative="1" as="geometry">
            <mxPoint x="827" y="1190" as="sourcePoint" />
            <mxPoint x="960.0000000000005" y="1190" as="targetPoint" />
          </mxGeometry>
        </mxCell>
        <mxCell id="QCmeBYBMexqe6wqpS28w-15" value="use" style="endArrow=open;endSize=12;dashed=1;html=1;rounded=0;edgeStyle=orthogonalEdgeStyle;" parent="1" target="QCmeBYBMexqe6wqpS28w-62" edge="1" source="6KuRIGiBE2LzYe0tk9z_-12">
          <mxGeometry width="160" relative="1" as="geometry">
            <mxPoint x="1250" y="1030" as="sourcePoint" />
            <mxPoint x="1299.9999999999995" y="1130" as="targetPoint" />
            <Array as="points">
              <mxPoint x="1240" y="970" />
            </Array>
          </mxGeometry>
        </mxCell>
        <mxCell id="QCmeBYBMexqe6wqpS28w-16" value="return" style="html=1;verticalAlign=bottom;endArrow=open;dashed=1;endSize=8;rounded=0;edgeStyle=orthogonalEdgeStyle;" parent="1" source="QCmeBYBMexqe6wqpS28w-62" target="QCmeBYBMexqe6wqpS28w-66" edge="1">
          <mxGeometry x="-0.4286" relative="1" as="geometry">
            <mxPoint x="1590" y="1178.77358490566" as="sourcePoint" />
            <mxPoint x="1619.9999999999995" y="1190" as="targetPoint" />
            <mxPoint as="offset" />
          </mxGeometry>
        </mxCell>
        <mxCell id="QCmeBYBMexqe6wqpS28w-18" value="LogManager&lt;div&gt;&lt;span style=&quot;font-weight: 400; text-wrap-mode: nowrap;&quot;&gt;&amp;lt;&amp;lt;Singleton&amp;gt;&amp;gt;&lt;/span&gt;&lt;/div&gt;" style="swimlane;fontStyle=1;align=center;verticalAlign=top;childLayout=stackLayout;horizontal=1;startSize=40;horizontalStack=0;resizeParent=1;resizeParentMax=0;resizeLast=0;collapsible=1;marginBottom=0;whiteSpace=wrap;html=1;" parent="1" vertex="1">
          <mxGeometry x="910" y="350" width="180" height="184" as="geometry" />
        </mxCell>
        <mxCell id="QCmeBYBMexqe6wqpS28w-19" value="- _instance: Logger&lt;div&gt;- formatter: CustomFormatter&lt;/div&gt;" style="text;strokeColor=none;fillColor=none;align=left;verticalAlign=top;spacingLeft=4;spacingRight=4;overflow=hidden;rotatable=0;points=[[0,0.5],[1,0.5]];portConstraint=eastwest;whiteSpace=wrap;html=1;" parent="QCmeBYBMexqe6wqpS28w-18" vertex="1">
          <mxGeometry y="40" width="180" height="34" as="geometry" />
        </mxCell>
        <mxCell id="QCmeBYBMexqe6wqpS28w-20" value="" style="line;strokeWidth=1;fillColor=none;align=left;verticalAlign=middle;spacingTop=-1;spacingLeft=3;spacingRight=3;rotatable=0;labelPosition=right;points=[];portConstraint=eastwest;strokeColor=inherit;" parent="QCmeBYBMexqe6wqpS28w-18" vertex="1">
          <mxGeometry y="74" width="180" height="8" as="geometry" />
        </mxCell>
        <mxCell id="QCmeBYBMexqe6wqpS28w-21" value="+ get_instance(): Logger&lt;div&gt;&lt;div&gt;+&amp;nbsp;&lt;span style=&quot;background-color: transparent; color: light-dark(rgb(0, 0, 0), rgb(255, 255, 255));&quot;&gt;log_debug()&lt;/span&gt;&lt;/div&gt;&lt;/div&gt;&lt;div&gt;+ log_info(&lt;span style=&quot;background-color: transparent; color: light-dark(rgb(0, 0, 0), rgb(255, 255, 255));&quot;&gt;)&lt;/span&gt;&lt;/div&gt;&lt;div&gt;+&amp;nbsp;&lt;span style=&quot;background-color: transparent; color: light-dark(rgb(0, 0, 0), rgb(255, 255, 255));&quot;&gt;log_warning(&lt;/span&gt;&lt;span style=&quot;background-color: transparent; color: light-dark(rgb(0, 0, 0), rgb(255, 255, 255));&quot;&gt;)&lt;/span&gt;&lt;/div&gt;&lt;div&gt;+&amp;nbsp;&lt;span style=&quot;color: light-dark(rgb(0, 0, 0), rgb(255, 255, 255)); background-color: transparent;&quot;&gt;log_error(&lt;/span&gt;&lt;span style=&quot;background-color: transparent; color: light-dark(rgb(0, 0, 0), rgb(255, 255, 255));&quot;&gt;)&lt;/span&gt;&lt;/div&gt;&lt;div&gt;&lt;div&gt;+&amp;nbsp;&lt;span style=&quot;background-color: transparent; color: light-dark(rgb(0, 0, 0), rgb(255, 255, 255));&quot;&gt;log_critical(&lt;/span&gt;&lt;span style=&quot;background-color: transparent; color: light-dark(rgb(0, 0, 0), rgb(255, 255, 255));&quot;&gt;)&lt;/span&gt;&lt;/div&gt;&lt;/div&gt;" style="text;strokeColor=none;fillColor=none;align=left;verticalAlign=top;spacingLeft=4;spacingRight=4;overflow=hidden;rotatable=0;points=[[0,0.5],[1,0.5]];portConstraint=eastwest;whiteSpace=wrap;html=1;" parent="QCmeBYBMexqe6wqpS28w-18" vertex="1">
          <mxGeometry y="82" width="180" height="102" as="geometry" />
        </mxCell>
        <mxCell id="QCmeBYBMexqe6wqpS28w-22" value="&lt;span style=&quot;font-weight: 400;&quot;&gt;CustomFormatter&lt;/span&gt;" style="swimlane;fontStyle=1;align=center;verticalAlign=top;childLayout=stackLayout;horizontal=1;startSize=26;horizontalStack=0;resizeParent=1;resizeParentMax=0;resizeLast=0;collapsible=1;marginBottom=0;whiteSpace=wrap;html=1;" parent="1" vertex="1">
          <mxGeometry x="1200" y="412" width="230" height="60" as="geometry" />
        </mxCell>
        <mxCell id="QCmeBYBMexqe6wqpS28w-24" value="" style="line;strokeWidth=1;fillColor=none;align=left;verticalAlign=middle;spacingTop=-1;spacingLeft=3;spacingRight=3;rotatable=0;labelPosition=right;points=[];portConstraint=eastwest;strokeColor=inherit;" parent="QCmeBYBMexqe6wqpS28w-22" vertex="1">
          <mxGeometry y="26" width="230" height="8" as="geometry" />
        </mxCell>
        <mxCell id="QCmeBYBMexqe6wqpS28w-25" value="+ format(record: LogRecord): Formatter" style="text;strokeColor=none;fillColor=none;align=left;verticalAlign=top;spacingLeft=4;spacingRight=4;overflow=hidden;rotatable=0;points=[[0,0.5],[1,0.5]];portConstraint=eastwest;whiteSpace=wrap;html=1;" parent="QCmeBYBMexqe6wqpS28w-22" vertex="1">
          <mxGeometry y="34" width="230" height="26" as="geometry" />
        </mxCell>
        <mxCell id="QCmeBYBMexqe6wqpS28w-26" value="&lt;span style=&quot;font-weight: 400;&quot;&gt;ThreadManager&lt;/span&gt;" style="swimlane;fontStyle=1;align=center;verticalAlign=top;childLayout=stackLayout;horizontal=1;startSize=26;horizontalStack=0;resizeParent=1;resizeParentMax=0;resizeLast=0;collapsible=1;marginBottom=0;whiteSpace=wrap;html=1;" parent="1" vertex="1">
          <mxGeometry x="530" y="820" width="210" height="86" as="geometry" />
        </mxCell>
        <mxCell id="QCmeBYBMexqe6wqpS28w-27" value="- threads: List[Any]" style="text;strokeColor=none;fillColor=none;align=left;verticalAlign=top;spacingLeft=4;spacingRight=4;overflow=hidden;rotatable=0;points=[[0,0.5],[1,0.5]];portConstraint=eastwest;whiteSpace=wrap;html=1;" parent="QCmeBYBMexqe6wqpS28w-26" vertex="1">
          <mxGeometry y="26" width="210" height="26" as="geometry" />
        </mxCell>
        <mxCell id="QCmeBYBMexqe6wqpS28w-28" value="" style="line;strokeWidth=1;fillColor=none;align=left;verticalAlign=middle;spacingTop=-1;spacingLeft=3;spacingRight=3;rotatable=0;labelPosition=right;points=[];portConstraint=eastwest;strokeColor=inherit;" parent="QCmeBYBMexqe6wqpS28w-26" vertex="1">
          <mxGeometry y="52" width="210" height="8" as="geometry" />
        </mxCell>
        <mxCell id="QCmeBYBMexqe6wqpS28w-29" value="+ run_thread(target: Any, args: Any)" style="text;strokeColor=none;fillColor=none;align=left;verticalAlign=top;spacingLeft=4;spacingRight=4;overflow=hidden;rotatable=0;points=[[0,0.5],[1,0.5]];portConstraint=eastwest;whiteSpace=wrap;html=1;" parent="QCmeBYBMexqe6wqpS28w-26" vertex="1">
          <mxGeometry y="60" width="210" height="26" as="geometry" />
        </mxCell>
        <mxCell id="QCmeBYBMexqe6wqpS28w-38" value="&lt;span style=&quot;font-weight: 400;&quot;&gt;LogCollector&lt;/span&gt;" style="swimlane;fontStyle=1;align=center;verticalAlign=top;childLayout=stackLayout;horizontal=1;startSize=26;horizontalStack=0;resizeParent=1;resizeParentMax=0;resizeLast=0;collapsible=1;marginBottom=0;whiteSpace=wrap;html=1;" parent="1" vertex="1">
          <mxGeometry x="900" y="590" width="200" height="210" as="geometry" />
        </mxCell>
        <mxCell id="QCmeBYBMexqe6wqpS28w-39" value="- logger: Logger&lt;div&gt;- parser: InterfaceLogParser&lt;/div&gt;&lt;div&gt;- publisher: InterfaceDataPublisher&lt;/div&gt;&lt;div&gt;- log_path: str&lt;/div&gt;&lt;div&gt;- _file: TextIOWrapper&lt;/div&gt;" style="text;strokeColor=none;fillColor=none;align=left;verticalAlign=top;spacingLeft=4;spacingRight=4;overflow=hidden;rotatable=0;points=[[0,0.5],[1,0.5]];portConstraint=eastwest;whiteSpace=wrap;html=1;" parent="QCmeBYBMexqe6wqpS28w-38" vertex="1">
          <mxGeometry y="26" width="200" height="84" as="geometry" />
        </mxCell>
        <mxCell id="QCmeBYBMexqe6wqpS28w-40" value="" style="line;strokeWidth=1;fillColor=none;align=left;verticalAlign=middle;spacingTop=-1;spacingLeft=3;spacingRight=3;rotatable=0;labelPosition=right;points=[];portConstraint=eastwest;strokeColor=inherit;" parent="QCmeBYBMexqe6wqpS28w-38" vertex="1">
          <mxGeometry y="110" width="200" height="8" as="geometry" />
        </mxCell>
        <mxCell id="QCmeBYBMexqe6wqpS28w-41" value="&lt;div&gt;+ start()&lt;/div&gt;&lt;div&gt;+ stop()&lt;/div&gt;&lt;div&gt;+ _collect_loop()&lt;/div&gt;+ collect_logs()&lt;div&gt;+ read_from_source(): List[str]&lt;/div&gt;" style="text;strokeColor=none;fillColor=none;align=left;verticalAlign=top;spacingLeft=4;spacingRight=4;overflow=hidden;rotatable=0;points=[[0,0.5],[1,0.5]];portConstraint=eastwest;whiteSpace=wrap;html=1;" parent="QCmeBYBMexqe6wqpS28w-38" vertex="1">
          <mxGeometry y="118" width="200" height="92" as="geometry" />
        </mxCell>
        <mxCell id="QCmeBYBMexqe6wqpS28w-42" value="&lt;span style=&quot;font-weight: 400;&quot;&gt;ParserFactory&lt;/span&gt;" style="swimlane;fontStyle=1;align=center;verticalAlign=top;childLayout=stackLayout;horizontal=1;startSize=26;horizontalStack=0;resizeParent=1;resizeParentMax=0;resizeLast=0;collapsible=1;marginBottom=0;whiteSpace=wrap;html=1;" parent="1" vertex="1">
          <mxGeometry x="535" y="1060" width="260" height="60" as="geometry" />
        </mxCell>
        <mxCell id="QCmeBYBMexqe6wqpS28w-44" value="" style="line;strokeWidth=1;fillColor=none;align=left;verticalAlign=middle;spacingTop=-1;spacingLeft=3;spacingRight=3;rotatable=0;labelPosition=right;points=[];portConstraint=eastwest;strokeColor=inherit;" parent="QCmeBYBMexqe6wqpS28w-42" vertex="1">
          <mxGeometry y="26" width="260" height="8" as="geometry" />
        </mxCell>
        <mxCell id="QCmeBYBMexqe6wqpS28w-45" value="+ get_parser(name: str): InterfaceLogParser" style="text;strokeColor=none;fillColor=none;align=left;verticalAlign=top;spacingLeft=4;spacingRight=4;overflow=hidden;rotatable=0;points=[[0,0.5],[1,0.5]];portConstraint=eastwest;whiteSpace=wrap;html=1;" parent="QCmeBYBMexqe6wqpS28w-42" vertex="1">
          <mxGeometry y="34" width="260" height="26" as="geometry" />
        </mxCell>
        <mxCell id="QCmeBYBMexqe6wqpS28w-46" value="&lt;span style=&quot;font-weight: 400;&quot;&gt;InterfaceLogParser&lt;/span&gt;" style="swimlane;fontStyle=1;align=center;verticalAlign=top;childLayout=stackLayout;horizontal=1;startSize=26;horizontalStack=0;resizeParent=1;resizeParentMax=0;resizeLast=0;collapsible=1;marginBottom=0;whiteSpace=wrap;html=1;" parent="1" vertex="1">
          <mxGeometry x="920" y="1200" width="200" height="60" as="geometry" />
        </mxCell>
        <mxCell id="QCmeBYBMexqe6wqpS28w-48" value="" style="line;strokeWidth=1;fillColor=none;align=left;verticalAlign=middle;spacingTop=-1;spacingLeft=3;spacingRight=3;rotatable=0;labelPosition=right;points=[];portConstraint=eastwest;strokeColor=inherit;" parent="QCmeBYBMexqe6wqpS28w-46" vertex="1">
          <mxGeometry y="26" width="200" height="8" as="geometry" />
        </mxCell>
        <mxCell id="QCmeBYBMexqe6wqpS28w-49" value="+ parse(raw_log: str): dict[str, Any]" style="text;strokeColor=none;fillColor=none;align=left;verticalAlign=top;spacingLeft=4;spacingRight=4;overflow=hidden;rotatable=0;points=[[0,0.5],[1,0.5]];portConstraint=eastwest;whiteSpace=wrap;html=1;" parent="QCmeBYBMexqe6wqpS28w-46" vertex="1">
          <mxGeometry y="34" width="200" height="26" as="geometry" />
        </mxCell>
        <mxCell id="QCmeBYBMexqe6wqpS28w-50" value="&lt;span style=&quot;font-weight: 400;&quot;&gt;ApacheParser&lt;/span&gt;" style="swimlane;fontStyle=1;align=center;verticalAlign=top;childLayout=stackLayout;horizontal=1;startSize=26;horizontalStack=0;resizeParent=1;resizeParentMax=0;resizeLast=0;collapsible=1;marginBottom=0;whiteSpace=wrap;html=1;" parent="1" vertex="1">
          <mxGeometry x="535" y="1411" width="210" height="60" as="geometry" />
        </mxCell>
        <mxCell id="QCmeBYBMexqe6wqpS28w-52" value="" style="line;strokeWidth=1;fillColor=none;align=left;verticalAlign=middle;spacingTop=-1;spacingLeft=3;spacingRight=3;rotatable=0;labelPosition=right;points=[];portConstraint=eastwest;strokeColor=inherit;" parent="QCmeBYBMexqe6wqpS28w-50" vertex="1">
          <mxGeometry y="26" width="210" height="8" as="geometry" />
        </mxCell>
        <mxCell id="QCmeBYBMexqe6wqpS28w-53" value="+ parse(raw_log: str): dict[str, Any]" style="text;strokeColor=none;fillColor=none;align=left;verticalAlign=top;spacingLeft=4;spacingRight=4;overflow=hidden;rotatable=0;points=[[0,0.5],[1,0.5]];portConstraint=eastwest;whiteSpace=wrap;html=1;" parent="QCmeBYBMexqe6wqpS28w-50" vertex="1">
          <mxGeometry y="34" width="210" height="26" as="geometry" />
        </mxCell>
        <mxCell id="QCmeBYBMexqe6wqpS28w-54" value="&lt;span style=&quot;font-weight: 400;&quot;&gt;DionaeaParser&lt;/span&gt;" style="swimlane;fontStyle=1;align=center;verticalAlign=top;childLayout=stackLayout;horizontal=1;startSize=26;horizontalStack=0;resizeParent=1;resizeParentMax=0;resizeLast=0;collapsible=1;marginBottom=0;whiteSpace=wrap;html=1;" parent="1" vertex="1">
          <mxGeometry x="785" y="1411" width="210" height="60" as="geometry" />
        </mxCell>
        <mxCell id="QCmeBYBMexqe6wqpS28w-56" value="" style="line;strokeWidth=1;fillColor=none;align=left;verticalAlign=middle;spacingTop=-1;spacingLeft=3;spacingRight=3;rotatable=0;labelPosition=right;points=[];portConstraint=eastwest;strokeColor=inherit;" parent="QCmeBYBMexqe6wqpS28w-54" vertex="1">
          <mxGeometry y="26" width="210" height="8" as="geometry" />
        </mxCell>
        <mxCell id="QCmeBYBMexqe6wqpS28w-57" value="+ parse(raw_log: str): dict[str, Any]" style="text;strokeColor=none;fillColor=none;align=left;verticalAlign=top;spacingLeft=4;spacingRight=4;overflow=hidden;rotatable=0;points=[[0,0.5],[1,0.5]];portConstraint=eastwest;whiteSpace=wrap;html=1;" parent="QCmeBYBMexqe6wqpS28w-54" vertex="1">
          <mxGeometry y="34" width="210" height="26" as="geometry" />
        </mxCell>
        <mxCell id="QCmeBYBMexqe6wqpS28w-58" value="&lt;span style=&quot;font-weight: 400;&quot;&gt;LDAPParser&lt;/span&gt;" style="swimlane;fontStyle=1;align=center;verticalAlign=top;childLayout=stackLayout;horizontal=1;startSize=26;horizontalStack=0;resizeParent=1;resizeParentMax=0;resizeLast=0;collapsible=1;marginBottom=0;whiteSpace=wrap;html=1;" parent="1" vertex="1">
          <mxGeometry x="1035" y="1411" width="220" height="60" as="geometry" />
        </mxCell>
        <mxCell id="QCmeBYBMexqe6wqpS28w-60" value="" style="line;strokeWidth=1;fillColor=none;align=left;verticalAlign=middle;spacingTop=-1;spacingLeft=3;spacingRight=3;rotatable=0;labelPosition=right;points=[];portConstraint=eastwest;strokeColor=inherit;" parent="QCmeBYBMexqe6wqpS28w-58" vertex="1">
          <mxGeometry y="26" width="220" height="8" as="geometry" />
        </mxCell>
        <mxCell id="QCmeBYBMexqe6wqpS28w-61" value="+ parse(raw_log: str): dict[str, Any]" style="text;strokeColor=none;fillColor=none;align=left;verticalAlign=top;spacingLeft=4;spacingRight=4;overflow=hidden;rotatable=0;points=[[0,0.5],[1,0.5]];portConstraint=eastwest;whiteSpace=wrap;html=1;" parent="QCmeBYBMexqe6wqpS28w-58" vertex="1">
          <mxGeometry y="34" width="220" height="26" as="geometry" />
        </mxCell>
        <mxCell id="QCmeBYBMexqe6wqpS28w-62" value="&lt;span style=&quot;font-weight: 400;&quot;&gt;DataPublisherFactory&lt;/span&gt;" style="swimlane;fontStyle=1;align=center;verticalAlign=top;childLayout=stackLayout;horizontal=1;startSize=26;horizontalStack=0;resizeParent=1;resizeParentMax=0;resizeLast=0;collapsible=1;marginBottom=0;whiteSpace=wrap;html=1;" parent="1" vertex="1">
          <mxGeometry x="1200" y="1050" width="310" height="70" as="geometry" />
        </mxCell>
        <mxCell id="QCmeBYBMexqe6wqpS28w-64" value="" style="line;strokeWidth=1;fillColor=none;align=left;verticalAlign=middle;spacingTop=-1;spacingLeft=3;spacingRight=3;rotatable=0;labelPosition=right;points=[];portConstraint=eastwest;strokeColor=inherit;" parent="QCmeBYBMexqe6wqpS28w-62" vertex="1">
          <mxGeometry y="26" width="310" height="8" as="geometry" />
        </mxCell>
        <mxCell id="QCmeBYBMexqe6wqpS28w-65" value="+ get_publisher(name: str): InterfaceDataPublisher" style="text;strokeColor=none;fillColor=none;align=left;verticalAlign=top;spacingLeft=4;spacingRight=4;overflow=hidden;rotatable=0;points=[[0,0.5],[1,0.5]];portConstraint=eastwest;whiteSpace=wrap;html=1;" parent="QCmeBYBMexqe6wqpS28w-62" vertex="1">
          <mxGeometry y="34" width="310" height="36" as="geometry" />
        </mxCell>
        <mxCell id="QCmeBYBMexqe6wqpS28w-66" value="&lt;span style=&quot;font-weight: 400;&quot;&gt;InterfaceDataPublisher&lt;/span&gt;" style="swimlane;fontStyle=1;align=center;verticalAlign=top;childLayout=stackLayout;horizontal=1;startSize=26;horizontalStack=0;resizeParent=1;resizeParentMax=0;resizeLast=0;collapsible=1;marginBottom=0;whiteSpace=wrap;html=1;" parent="1" vertex="1">
          <mxGeometry x="1230" y="810" width="190" height="60" as="geometry" />
        </mxCell>
        <mxCell id="QCmeBYBMexqe6wqpS28w-68" value="" style="line;strokeWidth=1;fillColor=none;align=left;verticalAlign=middle;spacingTop=-1;spacingLeft=3;spacingRight=3;rotatable=0;labelPosition=right;points=[];portConstraint=eastwest;strokeColor=inherit;" parent="QCmeBYBMexqe6wqpS28w-66" vertex="1">
          <mxGeometry y="26" width="190" height="8" as="geometry" />
        </mxCell>
        <mxCell id="QCmeBYBMexqe6wqpS28w-69" value="+ publish(log: Dict[str, Any]): void" style="text;strokeColor=none;fillColor=none;align=left;verticalAlign=top;spacingLeft=4;spacingRight=4;overflow=hidden;rotatable=0;points=[[0,0.5],[1,0.5]];portConstraint=eastwest;whiteSpace=wrap;html=1;" parent="QCmeBYBMexqe6wqpS28w-66" vertex="1">
          <mxGeometry y="34" width="190" height="26" as="geometry" />
        </mxCell>
        <mxCell id="QCmeBYBMexqe6wqpS28w-74" value="&lt;span style=&quot;font-weight: 400;&quot;&gt;MQTTPublisher&lt;/span&gt;" style="swimlane;fontStyle=1;align=center;verticalAlign=top;childLayout=stackLayout;horizontal=1;startSize=26;horizontalStack=0;resizeParent=1;resizeParentMax=0;resizeLast=0;collapsible=1;marginBottom=0;whiteSpace=wrap;html=1;" parent="1" vertex="1">
          <mxGeometry x="1520" y="786" width="160" height="114" as="geometry" />
        </mxCell>
        <mxCell id="QCmeBYBMexqe6wqpS28w-75" value="- broker_address: str&lt;div&gt;- topic: str&lt;/div&gt;&lt;div&gt;- port: int&lt;/div&gt;" style="text;strokeColor=none;fillColor=none;align=left;verticalAlign=top;spacingLeft=4;spacingRight=4;overflow=hidden;rotatable=0;points=[[0,0.5],[1,0.5]];portConstraint=eastwest;whiteSpace=wrap;html=1;" parent="QCmeBYBMexqe6wqpS28w-74" vertex="1">
          <mxGeometry y="26" width="160" height="54" as="geometry" />
        </mxCell>
        <mxCell id="QCmeBYBMexqe6wqpS28w-76" value="" style="line;strokeWidth=1;fillColor=none;align=left;verticalAlign=middle;spacingTop=-1;spacingLeft=3;spacingRight=3;rotatable=0;labelPosition=right;points=[];portConstraint=eastwest;strokeColor=inherit;" parent="QCmeBYBMexqe6wqpS28w-74" vertex="1">
          <mxGeometry y="80" width="160" height="8" as="geometry" />
        </mxCell>
        <mxCell id="QCmeBYBMexqe6wqpS28w-77" value="+ publish(log: dict): void" style="text;strokeColor=none;fillColor=none;align=left;verticalAlign=top;spacingLeft=4;spacingRight=4;overflow=hidden;rotatable=0;points=[[0,0.5],[1,0.5]];portConstraint=eastwest;whiteSpace=wrap;html=1;" parent="QCmeBYBMexqe6wqpS28w-74" vertex="1">
          <mxGeometry y="88" width="160" height="26" as="geometry" />
        </mxCell>
        <mxCell id="QCmeBYBMexqe6wqpS28w-78" value="" style="endArrow=block;endSize=16;endFill=0;html=1;rounded=0;dashed=1;" parent="1" target="QCmeBYBMexqe6wqpS28w-46" edge="1">
          <mxGeometry width="160" relative="1" as="geometry">
            <mxPoint x="1020" y="1320" as="sourcePoint" />
            <mxPoint x="1009.5" y="1313" as="targetPoint" />
          </mxGeometry>
        </mxCell>
        <mxCell id="6KuRIGiBE2LzYe0tk9z_-1" value="&lt;span style=&quot;font-weight: 400;&quot;&gt;CowrieParser&lt;/span&gt;" style="swimlane;fontStyle=1;align=center;verticalAlign=top;childLayout=stackLayout;horizontal=1;startSize=26;horizontalStack=0;resizeParent=1;resizeParentMax=0;resizeLast=0;collapsible=1;marginBottom=0;whiteSpace=wrap;html=1;" parent="1" vertex="1">
          <mxGeometry x="1295" y="1411" width="210" height="60" as="geometry" />
        </mxCell>
        <mxCell id="6KuRIGiBE2LzYe0tk9z_-3" value="" style="line;strokeWidth=1;fillColor=none;align=left;verticalAlign=middle;spacingTop=-1;spacingLeft=3;spacingRight=3;rotatable=0;labelPosition=right;points=[];portConstraint=eastwest;strokeColor=inherit;" parent="6KuRIGiBE2LzYe0tk9z_-1" vertex="1">
          <mxGeometry y="26" width="210" height="8" as="geometry" />
        </mxCell>
        <mxCell id="6KuRIGiBE2LzYe0tk9z_-4" value="+ parse(raw_log: str): dict[str, Any]" style="text;strokeColor=none;fillColor=none;align=left;verticalAlign=top;spacingLeft=4;spacingRight=4;overflow=hidden;rotatable=0;points=[[0,0.5],[1,0.5]];portConstraint=eastwest;whiteSpace=wrap;html=1;" parent="6KuRIGiBE2LzYe0tk9z_-1" vertex="1">
          <mxGeometry y="34" width="210" height="26" as="geometry" />
        </mxCell>
        <mxCell id="6KuRIGiBE2LzYe0tk9z_-5" value="&lt;span style=&quot;font-weight: 400;&quot;&gt;GeomapIP&lt;/span&gt;" style="swimlane;fontStyle=1;align=center;verticalAlign=top;childLayout=stackLayout;horizontal=1;startSize=26;horizontalStack=0;resizeParent=1;resizeParentMax=0;resizeLast=0;collapsible=1;marginBottom=0;whiteSpace=wrap;html=1;" parent="1" vertex="1">
          <mxGeometry x="920" y="1634" width="200" height="60" as="geometry" />
        </mxCell>
        <mxCell id="6KuRIGiBE2LzYe0tk9z_-7" value="" style="line;strokeWidth=1;fillColor=none;align=left;verticalAlign=middle;spacingTop=-1;spacingLeft=3;spacingRight=3;rotatable=0;labelPosition=right;points=[];portConstraint=eastwest;strokeColor=inherit;" parent="6KuRIGiBE2LzYe0tk9z_-5" vertex="1">
          <mxGeometry y="26" width="200" height="8" as="geometry" />
        </mxCell>
        <mxCell id="6KuRIGiBE2LzYe0tk9z_-8" value="+ fetch_location(IP: str): tuple[float]" style="text;strokeColor=none;fillColor=none;align=left;verticalAlign=top;spacingLeft=4;spacingRight=4;overflow=hidden;rotatable=0;points=[[0,0.5],[1,0.5]];portConstraint=eastwest;whiteSpace=wrap;html=1;" parent="6KuRIGiBE2LzYe0tk9z_-5" vertex="1">
          <mxGeometry y="34" width="200" height="26" as="geometry" />
        </mxCell>
        <mxCell id="6KuRIGiBE2LzYe0tk9z_-9" style="edgeStyle=orthogonalEdgeStyle;rounded=0;orthogonalLoop=1;jettySize=auto;html=1;endArrow=none;startFill=0;dashed=1;" parent="1" edge="1">
          <mxGeometry relative="1" as="geometry">
            <mxPoint x="1399.94" y="1321" as="targetPoint" />
            <mxPoint x="1399.94" y="1411" as="sourcePoint" />
            <Array as="points">
              <mxPoint x="1399.94" y="1320" />
            </Array>
          </mxGeometry>
        </mxCell>
        <mxCell id="6KuRIGiBE2LzYe0tk9z_-10" style="edgeStyle=orthogonalEdgeStyle;rounded=0;orthogonalLoop=1;jettySize=auto;html=1;endArrow=none;startFill=0;dashed=1;" parent="1" edge="1">
          <mxGeometry relative="1" as="geometry">
            <mxPoint x="889.94" y="1321" as="targetPoint" />
            <mxPoint x="889.94" y="1411" as="sourcePoint" />
            <Array as="points">
              <mxPoint x="889.94" y="1320" />
            </Array>
          </mxGeometry>
        </mxCell>
        <mxCell id="6KuRIGiBE2LzYe0tk9z_-11" style="edgeStyle=orthogonalEdgeStyle;rounded=0;orthogonalLoop=1;jettySize=auto;html=1;endArrow=none;startFill=0;dashed=1;" parent="1" edge="1">
          <mxGeometry relative="1" as="geometry">
            <mxPoint x="639.89" y="1321" as="targetPoint" />
            <mxPoint x="639.89" y="1411" as="sourcePoint" />
            <Array as="points">
              <mxPoint x="639.89" y="1320" />
            </Array>
          </mxGeometry>
        </mxCell>
        <mxCell id="6KuRIGiBE2LzYe0tk9z_-12" value="&lt;span style=&quot;font-weight: 400;&quot;&gt;ServiceManager&lt;/span&gt;" style="swimlane;fontStyle=1;align=center;verticalAlign=top;childLayout=stackLayout;horizontal=1;startSize=26;horizontalStack=0;resizeParent=1;resizeParentMax=0;resizeLast=0;collapsible=1;marginBottom=0;whiteSpace=wrap;html=1;" parent="1" vertex="1">
          <mxGeometry x="920" y="900" width="210" height="140" as="geometry" />
        </mxCell>
        <mxCell id="6KuRIGiBE2LzYe0tk9z_-13" value="- logger: LogManager&lt;div&gt;- thread_manager: ThreadManager&lt;/div&gt;&lt;div&gt;- services: dict(Any)&lt;/div&gt;" style="text;strokeColor=none;fillColor=none;align=left;verticalAlign=top;spacingLeft=4;spacingRight=4;overflow=hidden;rotatable=0;points=[[0,0.5],[1,0.5]];portConstraint=eastwest;whiteSpace=wrap;html=1;" parent="6KuRIGiBE2LzYe0tk9z_-12" vertex="1">
          <mxGeometry y="26" width="210" height="54" as="geometry" />
        </mxCell>
        <mxCell id="6KuRIGiBE2LzYe0tk9z_-14" value="" style="line;strokeWidth=1;fillColor=none;align=left;verticalAlign=middle;spacingTop=-1;spacingLeft=3;spacingRight=3;rotatable=0;labelPosition=right;points=[];portConstraint=eastwest;strokeColor=inherit;" parent="6KuRIGiBE2LzYe0tk9z_-12" vertex="1">
          <mxGeometry y="80" width="210" height="8" as="geometry" />
        </mxCell>
        <mxCell id="6KuRIGiBE2LzYe0tk9z_-15" value="+ initialize_services(): void&lt;div&gt;+ start_services(): void&lt;/div&gt;&lt;div&gt;+ stop_services(): void&lt;/div&gt;" style="text;strokeColor=none;fillColor=none;align=left;verticalAlign=top;spacingLeft=4;spacingRight=4;overflow=hidden;rotatable=0;points=[[0,0.5],[1,0.5]];portConstraint=eastwest;whiteSpace=wrap;html=1;" parent="6KuRIGiBE2LzYe0tk9z_-12" vertex="1">
          <mxGeometry y="88" width="210" height="52" as="geometry" />
        </mxCell>
        <mxCell id="6KuRIGiBE2LzYe0tk9z_-17" value="" style="endArrow=none;html=1;rounded=0;dashed=1;" parent="1" edge="1">
          <mxGeometry width="50" height="50" relative="1" as="geometry">
            <mxPoint x="1410" y="1540" as="sourcePoint" />
            <mxPoint x="640" y="1540" as="targetPoint" />
          </mxGeometry>
        </mxCell>
        <mxCell id="6KuRIGiBE2LzYe0tk9z_-18" value="" style="endArrow=none;html=1;rounded=0;dashed=1;" parent="1" source="QCmeBYBMexqe6wqpS28w-50" edge="1">
          <mxGeometry width="50" height="50" relative="1" as="geometry">
            <mxPoint x="1160" y="1430" as="sourcePoint" />
            <mxPoint x="640" y="1540" as="targetPoint" />
          </mxGeometry>
        </mxCell>
        <mxCell id="6KuRIGiBE2LzYe0tk9z_-20" value="" style="endArrow=none;html=1;rounded=0;dashed=1;" parent="1" edge="1">
          <mxGeometry width="50" height="50" relative="1" as="geometry">
            <mxPoint x="889.38" y="1471" as="sourcePoint" />
            <mxPoint x="889.38" y="1540" as="targetPoint" />
          </mxGeometry>
        </mxCell>
        <mxCell id="6KuRIGiBE2LzYe0tk9z_-21" value="" style="endArrow=none;html=1;rounded=0;dashed=1;" parent="1" edge="1">
          <mxGeometry width="50" height="50" relative="1" as="geometry">
            <mxPoint x="1144.38" y="1471" as="sourcePoint" />
            <mxPoint x="1144.38" y="1540" as="targetPoint" />
          </mxGeometry>
        </mxCell>
        <mxCell id="6KuRIGiBE2LzYe0tk9z_-22" value="" style="endArrow=none;html=1;rounded=0;dashed=1;" parent="1" edge="1">
          <mxGeometry width="50" height="50" relative="1" as="geometry">
            <mxPoint x="1409.38" y="1471" as="sourcePoint" />
            <mxPoint x="1409.38" y="1540" as="targetPoint" />
          </mxGeometry>
        </mxCell>
        <mxCell id="6KuRIGiBE2LzYe0tk9z_-23" value="" style="endArrow=open;html=1;rounded=0;dashed=1;endSize=16;endFill=0;" parent="1" edge="1">
          <mxGeometry width="50" height="50" relative="1" as="geometry">
            <mxPoint x="1020" y="1540" as="sourcePoint" />
            <mxPoint x="1019.38" y="1634" as="targetPoint" />
          </mxGeometry>
        </mxCell>
        <mxCell id="dHYuHEalV0UuCKeOw86G-2" value="use" style="edgeLabel;html=1;align=center;verticalAlign=middle;resizable=0;points=[];" vertex="1" connectable="0" parent="6KuRIGiBE2LzYe0tk9z_-23">
          <mxGeometry x="-0.1715" relative="1" as="geometry">
            <mxPoint as="offset" />
          </mxGeometry>
        </mxCell>
        <mxCell id="dHYuHEalV0UuCKeOw86G-4" value="" style="endArrow=open;html=1;endSize=12;startArrow=diamondThin;startSize=14;startFill=0;edgeStyle=orthogonalEdgeStyle;align=left;verticalAlign=bottom;rounded=0;" edge="1" parent="1" source="QCmeBYBMexqe6wqpS28w-18" target="QCmeBYBMexqe6wqpS28w-22">
          <mxGeometry x="-1" y="3" relative="1" as="geometry">
            <mxPoint x="1220" y="630" as="sourcePoint" />
            <mxPoint x="1955" y="1130" as="targetPoint" />
            <Array as="points">
              <mxPoint x="1140" y="442" />
              <mxPoint x="1140" y="442" />
            </Array>
          </mxGeometry>
        </mxCell>
        <mxCell id="dHYuHEalV0UuCKeOw86G-5" value="" style="endArrow=open;html=1;endSize=12;startArrow=diamondThin;startSize=14;startFill=0;edgeStyle=orthogonalEdgeStyle;align=left;verticalAlign=bottom;rounded=0;" edge="1" parent="1" source="QCmeBYBMexqe6wqpS28w-38" target="QCmeBYBMexqe6wqpS28w-18">
          <mxGeometry x="-1" y="3" relative="1" as="geometry">
            <mxPoint x="1110" y="510" as="sourcePoint" />
            <mxPoint x="1220" y="510" as="targetPoint" />
            <Array as="points" />
          </mxGeometry>
        </mxCell>
        <mxCell id="dHYuHEalV0UuCKeOw86G-6" value="" style="endArrow=open;html=1;endSize=12;startArrow=diamondThin;startSize=14;startFill=0;edgeStyle=orthogonalEdgeStyle;align=left;verticalAlign=bottom;rounded=0;" edge="1" parent="1" source="6KuRIGiBE2LzYe0tk9z_-12" target="QCmeBYBMexqe6wqpS28w-38">
          <mxGeometry x="-1" y="3" relative="1" as="geometry">
            <mxPoint x="1050" y="906" as="sourcePoint" />
            <mxPoint x="1050" y="850" as="targetPoint" />
            <Array as="points">
              <mxPoint x="1025" y="830" />
              <mxPoint x="1025" y="830" />
            </Array>
          </mxGeometry>
        </mxCell>
        <mxCell id="dHYuHEalV0UuCKeOw86G-7" value="" style="endArrow=open;html=1;endSize=12;startArrow=diamondThin;startSize=14;startFill=0;edgeStyle=orthogonalEdgeStyle;align=left;verticalAlign=bottom;rounded=0;" edge="1" parent="1" source="6KuRIGiBE2LzYe0tk9z_-12" target="QCmeBYBMexqe6wqpS28w-26">
          <mxGeometry x="-1" y="3" relative="1" as="geometry">
            <mxPoint x="960" y="926" as="sourcePoint" />
            <mxPoint x="960" y="870" as="targetPoint" />
            <Array as="points">
              <mxPoint x="970" y="863" />
            </Array>
          </mxGeometry>
        </mxCell>
      </root>
    </mxGraphModel>
  </diagram>
</mxfile>
